<svg width="19" height="13" viewBox="0 0 19 13" fill="none" xmlns="http://www.w3.org/2000/svg">
<path d="M0 6.5C0 6.5 3.5625 0.65625 9.5 0.65625C15.4375 0.65625 19 6.5 19 6.5C19 6.5 15.4375 12.3438 9.5 12.3438C3.5625 12.3438 0 6.5 0 6.5ZM9.5 10.2188C10.6023 10.2188 11.6595 9.82695 12.4389 9.12955C13.2184 8.43215 13.6562 7.48627 13.6562 6.5C13.6562 5.51373 13.2184 4.56785 12.4389 3.87045C11.6595 3.17305 10.6023 2.78125 9.5 2.78125C8.39769 2.78125 7.34054 3.17305 6.56109 3.87045C5.78164 4.56785 5.34375 5.51373 5.34375 6.5C5.34375 7.48627 5.78164 8.43215 6.56109 9.12955C7.34054 9.82695 8.39769 10.2188 9.5 10.2188Z" fill="#2F2F2F"/>
</svg>
