<svg width="20" height="21" viewBox="0 0 20 21" fill="none" xmlns="http://www.w3.org/2000/svg">
<path d="M9.16661 16.4244V17.2888C9.16661 17.5181 9.07882 17.738 8.92254 17.9001C8.76626 18.0622 8.5543 18.1533 8.33328 18.1533H6.66663V19.0177C6.66663 19.4763 6.49103 19.916 6.17847 20.2402C5.86592 20.5645 5.442 20.7466 4.99997 20.7466H1.66666C1.22463 20.7466 0.800711 20.5645 0.488152 20.2402C0.175594 19.916 0 19.4763 0 19.0177V16.7823C9.43951e-05 16.3238 0.17575 15.8841 0.48833 15.56L6.93829 8.86918C6.54281 7.47611 6.58012 5.98924 7.04494 4.6194C7.50976 3.24956 8.3785 2.06627 9.52798 1.23732C10.6775 0.408375 12.0493 -0.0241621 13.4491 0.00104213C14.8488 0.0262464 16.2054 0.507913 17.3264 1.37774C18.4475 2.24757 19.2761 3.46142 19.6948 4.84717C20.1135 6.23292 20.1011 7.72024 19.6592 9.09824C19.2174 10.4762 18.3685 11.675 17.2331 12.5245C16.0976 13.374 14.7332 13.8311 13.3333 13.8311H11.6649V15.56C11.6649 15.7892 11.5771 16.0091 11.4209 16.1712C11.2646 16.3333 11.0526 16.4244 10.8316 16.4244H9.16495H9.16661ZM14.9999 6.91554C15.4419 6.91554 15.8659 6.73339 16.1784 6.40916C16.491 6.08493 16.6666 5.64518 16.6666 5.18666C16.6666 4.72813 16.491 4.28838 16.1784 3.96415C15.8659 3.63992 15.4419 3.45777 14.9999 3.45777C14.5579 3.45777 14.134 3.63992 13.8214 3.96415C13.5089 4.28838 13.3333 4.72813 13.3333 5.18666C13.3333 5.64518 13.5089 6.08493 13.8214 6.40916C14.134 6.73339 14.5579 6.91554 14.9999 6.91554Z" fill="black"/>
</svg>
